PathFileType	4	(X/Y/Z)	/Users/niels/Desktop/University/Third Semester/Perception and Action/Exam/Gymnastics Motion Tracking/Code for Gym Tracking/Analyzed Data/Webcam_Backflip/id2001_2_trajectory_Sports2D/id2001_2_trajectory_Sports2D_px_person00.trc
DataRate	CameraRate	NumFrames	NumMarkers	Units	OrigDataRate	OrigDataStartFrame	OrigNumFrames
29.887218045112782	29.887218045112782	8	22	m	29.887218045112782	199	266
Frame#	Time	Hip			RHip			RKnee			RAnkle			RBigToe			RSmallToe			RHeel			LHip			LKnee			LAnkle			LBigToe			LSmallToe			LHeel			Neck			Head			Nose			RShoulder			RElbow			RWrist			LShoulder			LElbow			LWrist		
		X1	Y1	Z1	X2	Y2	Z2	X3	Y3	Z3	X4	Y4	Z4	X5	Y5	Z5	X6	Y6	Z6	X7	Y7	Z7	X8	Y8	Z8	X9	Y9	Z9	X10	Y10	Z10	X11	Y11	Z11	X12	Y12	Z12	X13	Y13	Z13	X14	Y14	Z14	X15	Y15	Z15	X16	Y16	Z16	X17	Y17	Z17	X18	Y18	Z18	X19	Y19	Z19	X20	Y20	Z20	X21	Y21	Z21	X22	Y22	Z22
199	6.658364779874215	0.8184742025220956	-0.7497615334677753	0.0	0.7911147871503872	-0.7651049927844973	0.0	0.9190746091532112	-1.0571388810944762	0.0	0.6905540485012367	-0.9996822528499587	0.0	0.5841141250458957	-1.0439929769032605	0.0	0.6298355976421227	-1.0297109608477668	0.0	0.6603645736997654	-0.9738202696369711	0.0	0.8355970236635548	-0.7614646669696703	0.0	0.9679389049801325	-1.0333267170525153	0.0	0.7072503315285134	-0.9920046907220337	0.0	0.6571200822840204	-1.0271297032426971	0.0	0.657969405484758	-1.0325390937164263	0.0	0.6701596203102512	-0.969567791743797	0.0	1.2876854503107928	-0.7511822991060789	0.0	1.5183073632437116	-0.8054697012261663	0.0	1.4079912793296585	-0.8675144336169497	0.0	1.2311114984233364	-0.7320185944345957	0.0	1.0330651688177996	-0.6482798822984286	0.0	0.8595943163843938	-0.7834453378856687	0.0	1.251041434605091	-0.7311213018909171	0.0	1.0501586789255453	-0.667162656758307	0.0	0.905122526542691	-0.8068267731440235	0.0
200	6.69182389937107	0.8196512483896999	-0.749688398396873	0.0	0.7916479217331641	-0.764294356484167	0.0	0.9187161441935726	-1.0568306799594376	0.0	0.6930622712136449	-0.999311384503268	0.0	0.5981940888466287	-1.0427141724523392	0.0	0.6306673463852995	-1.028869217452684	0.0	0.6601229070179728	-0.9749074492109253	0.0	0.8394700716382004	-0.7621159481464396	0.0	0.9751199112987097	-1.0354638399888294	0.0	0.709105400528006	-0.9939879772576903	0.0	0.6572801536517406	-1.0321441694718938	0.0	0.6560754674862967	-1.0359659480371943	0.0	0.6704037973153127	-0.9723473314785087	0.0	1.2881665879281488	-0.7322765755573309	0.0	1.5190034832312225	-0.7785336093810956	0.0	1.4127797779239104	-0.8444368020933378	0.0	1.22867943471121	-0.7134035402894836	0.0	1.0283878622135334	-0.636401113711807	0.0	0.8613782875387243	-0.7789708854814358	0.0	1.2482176941882441	-0.7192252342620753	0.0	1.0461493149648096	-0.654898029074674	0.0	0.8969958514198306	-0.8025569020462097	0.0
201	6.725283018867925	0.8215981012714799	-0.7490171271583135	0.0	0.7924501693601933	-0.7628694098170008	0.0	0.9182544509822038	-1.0565631481601219	0.0	0.6945111920922948	-0.9995981279733692	0.0	0.6056105351127449	-1.0401759547109766	0.0	0.6209626110250103	-1.0266065919737997	0.0	0.6610661256385898	-0.9758822955425197	0.0	0.8451732186285886	-0.7623048384301631	0.0	0.98356324120855	-1.0375893328954933	0.0	0.7103858259230769	-0.9950248736085342	0.0	0.6567762233352723	-1.0349938198790767	0.0	0.6543905166957651	-1.0375868559393995	0.0	0.671763472094154	-0.9745814851864765	0.0	1.288275972955192	-0.7125627964972855	0.0	1.518747919414446	-0.7500370661843353	0.0	1.417113590461529	-0.8192362173132643	0.0	1.2267290967355098	-0.693645116445759	0.0	1.022890524549413	-0.6239721778773616	0.0	0.8640357126052819	-0.7740395660976934	0.0	1.2459118934944282	-0.7072491810649654	0.0	1.0416538312799466	-0.6416216012242859	0.0	0.8925481349917834	-0.7963571605495903	0.0
202	6.758742138364781	0.824534210285666	-0.7481311295638927	0.0	0.7934544634942647	-0.7610505391065654	0.0	0.917766002293992	-1.0562600543395528	0.0	0.6941912384277207	-1.000736273295289	0.0	0.6065945775209381	-1.0371979622590715	0.0	0.6001530573574061	-1.0236975582567927	0.0	0.66303570886608	-0.9770969629728756	0.0	0.8528809384758071	-0.7622801645095941	0.0	0.9926822759374174	-1.0396572921221723	0.0	0.7104618976444763	-0.9951946340136637	0.0	0.655685803856032	-1.0368355204144282	0.0	0.6531111463941701	-1.0381570001850486	0.0	0.673921186238495	-0.9762996492104425	0.0	1.2880426389996218	-0.6921986603549344	0.0	1.5178383441130947	-0.7203281963309123	0.0	1.4208312137775998	-0.7919258007309176	0.0	1.2252568076092045	-0.6728546700376242	0.0	1.0167235023597538	-0.6110797721813788	0.0	0.8670939330191305	-0.768681151338027	0.0	1.24432449914091	-0.6949061939738966	0.0	1.0371256610132669	-0.627750850725794	0.0	0.8925598801160198	-0.7883216017863238	0.0
203	6.792201257861636	0.8284512034528114	-0.7475618522769867	0.0	0.7947857668252655	-0.7592272355188561	0.0	0.9172423531774337	-1.0560719809813446	0.0	0.692207243650428	-1.0019087735299292	0.0	0.6030449450268173	-1.0340638173224912	0.0	0.5706267685966393	-1.020584916659559	0.0	0.666133071029934	-0.9783026269130604	0.0	0.8621850651017255	-0.7623352859502726	0.0	1.0013559163305947	-1.0417828785999264	0.0	0.709529027140549	-0.9942483707611691	0.0	0.6544770470766139	-1.0381717399509423	0.0	0.652339882415657	-1.0380250432818685	0.0	0.6765035358119775	-0.9773313670279962	0.0	1.2872717414747088	-0.671170160924326	0.0	1.5163067073386334	-0.6898166333347975	0.0	1.4236711083579172	-0.7630045532711488	0.0	1.22402613472786	-0.6513433114527817	0.0	1.0101396807964003	-0.5979379540949069	0.0	0.870109284915978	-0.7630590478094478	0.0	1.2433638029795295	-0.6813028072739916	0.0	1.0328233410530474	-0.6136264550407758	0.0	0.8974236529669954	-0.7791855883411833	0.0
204	6.825660377358491	0.8331013253471864	-0.7477438783640773	0.0	0.7966752460451126	-0.7577483898700156	0.0	0.9163999813405612	-1.0562503141850663	0.0	0.6890717765600841	-1.0020397724726668	0.0	0.5975854556008992	-1.0308956682099168	0.0	0.5384405327310492	-1.0175248788803528	0.0	0.6704346495783359	-0.9787256018303588	0.0	0.8721622898627048	-0.7626681314712406	0.0	1.0082533752141094	-1.0441201326468381	0.0	0.7086317286708255	-0.9919677410549812	0.0	0.6535170830581801	-1.0390335061116989	0.0	0.6519612988298746	-1.0372540550827256	0.0	0.6792815179866588	-0.9770831826871422	0.0	1.2855630897305104	-0.6494135185518437	0.0	1.5138682215036892	-0.6585313270507539	0.0	1.4252833561082994	-0.733182190467676	0.0	1.2225504120272668	-0.629658740021914	0.0	1.0032567660910008	-0.5848320006094458	0.0	0.8727986791734086	-0.757490185894261	0.0	1.2426990621698784	-0.6653414469673591	0.0	1.028654822052177	-0.5995433097393824	0.0	0.9070942751744445	-0.7700615527856823	0.0
205	6.859119496855347	0.8380911423801028	-0.7489618418706416	0.0	0.7992870261927	-0.7568532269719568	0.0	0.9148840691996776	-1.056930997722619	0.0	0.685290908352398	-1.0007102761929825	0.0	0.592433911385387	-1.028010014546087	0.0	0.5109092107359596	-1.0148613198184344	0.0	0.6757274033722538	-0.9777850956824747	0.0	0.8818785437185834	-0.7633722317366762	0.0	1.012692821360856	-1.046733462904752	0.0	0.709423481207657	-0.9887944634540451	0.0	0.6529188396322239	-1.039466894471112	0.0	0.65180247188492	-1.0360724537160435	0.0	0.6820876264754347	-0.9750668983721495	0.0	1.2826469456839342	-0.626986118183231	0.0	1.5103236418416943	-0.6262635305503222	0.0	1.4254399884008917	-0.7031269669397762	0.0	1.2204296835817898	-0.6084132216044987	0.0	0.9961332455539903	-0.5720240856661278	0.0	0.8749744179239171	-0.7523239496721429	0.0	1.241823508597188	-0.6463253448430563	0.0	1.024311590673259	-0.585686074558566	0.0	0.9209070267881259	-0.7619122761739576	0.0
206	6.8925786163522025	0.8429157457736122	-0.75125227746768	0.0	0.8026702110676233	-0.7566296815439029	0.0	0.9124459023871543	-1.0579624965363736	0.0	0.6812393750713379	-0.9983541957891512	0.0	0.5887316804962163	-1.0257882026235274	0.0	0.4922595759320153	-1.0129098570345454	0.0	0.6813403783089412	-0.9755599154833734	0.0	0.890534957802134	-0.764296716878878	0.0	1.0146632807192906	-1.0494296654033517	0.0	0.7135822264154675	-0.9860298716252048	0.0	0.6526313337415074	-1.0396065104676036	0.0	0.6517553262645931	-1.0348805252629147	0.0	0.6845004783651396	-0.9715785568611836	0.0	1.278656538419429	-0.6041680095350582	0.0	1.5058632413118564	-0.593097426791066	0.0	1.4242415224153964	-0.6734592312014671	0.0	1.2175912525718087	-0.5880806829588856	0.0	0.989047455572852	-0.5597196544111653	0.0	0.8764936188634284	-0.7477167332160385	0.0	1.240126869368733	-0.624345221640639	0.0	1.0194479924592128	-0.5722400363435124	0.0	0.9373439579171051	-0.7551903981878708	0.0
